<?xml version="1.0" encoding="UTF-8"?>
<svg id="Layer_2" data-name="Layer 2" xmlns="http://www.w3.org/2000/svg" viewBox="0 0 767.88 730.38">
  <defs>
    <style>
      .cls-1 {
        fill: #f8b420;
      }

      .cls-1, .cls-2, .cls-3, .cls-4, .cls-5, .cls-6, .cls-7 {
        stroke-width: 0px;
      }

      .cls-2 {
        fill: #6d7aa2;
      }

      .cls-3 {
        fill: #bdbebe;
      }

      .cls-4 {
        fill: #3759a8;
      }

      .cls-5 {
        fill: #ededed;
      }

      .cls-6 {
        fill: #fce338;
      }

      .cls-7 {
        fill: #769cd1;
      }
    </style>
  </defs>
  <g id="Layer_1-2" data-name="Layer 1">
    <g>
      <path class="cls-7" d="M748.03,728.9c-1.64.48-3.29,1.38-4.93,1.38-51.64.08-103.28.17-154.92.03-53.61-.15-107.22-.86-160.83-.63-16.71.07-27.58-10.92-27.56-27.58.17-134.1.12-268.2.05-402.3,0-10.65,3.81-18.87,12.77-24.94,26.14-17.71,52.14-35.62,78.19-53.47,21.66-14.84,43.31-29.69,64.91-44.61,1.6-1.1,2.77-2.83,4.13-4.26,2.18-1.06,4.5-1.9,6.51-3.23,5.3-3.5,10.66-6.7,17.28-6.79,1.18,84.2-.35,168.45.23,252.66-1.82.11-3.64.3-5.46.3-17.14.03-34.29-.1-51.43.06-14.91.13-25.1,10.28-25.12,25.2-.09,53.93-.08,107.86.03,161.79.01,6.2,1.65,12.02,6.07,16.93,5.17,5.74,11.44,8.13,19.02,8.13,18.96,0,37.93.19,56.89.3-.04,31.46.03,62.93-.23,94.39-.04,5.19,1.72,6.41,6.63,6.39,50.78-.16,101.55-.1,152.33-.09,1.82,0,3.64.21,5.45.32Z"/>
      <path class="cls-4" d="M748.03,728.9c-1.82-.11-3.63-.32-5.45-.32-50.78-.02-101.55-.07-152.33.09-4.91.02-6.67-1.2-6.63-6.39.26-31.46.19-62.93.23-94.39l.11-.25c.53.02,1.07.04,1.6.07,9.71,3.09,23.05.75,33.36.74,9.87,0,21.59,1.68,30.78-1.94,9.02-3.5,15.78-9.55,15.84-19.56.3-56.74.19-113.49.11-170.23-.01-9.22-7.69-18.08-16.92-20.24-9.25-3.12-19.7-1.94-29.43-1.95-11.06-.01-22.82-1.01-33.76.8-.54.03-1.08.07-1.62.1l-.05-.26c-.58-84.21.95-168.46-.23-252.66,3.6.76,7.4,1.02,10.73,2.4,4.18,1.73,7.98,4.39,11.94,6.65,6.22,4.66,12.27,9.55,18.67,13.95,37.16,25.53,74.4,50.95,111.62,76.4,6.59,4.51,13.23,8.94,19.76,13.55,7.54,5.32,11.44,12.34,11.44,21.94-.12,135.93-.17,271.86.09,407.79.02,11.19-9.76,23.52-19.84,23.73Z"/>
      <path class="cls-6" d="M166.78,729.25c-13.38.02-23.25-11.81-32.66-19.81-11.54-9.81-23.86-19.06-34.92-29.38-9.3-8.68-10.6-17.2-10.57-29.62.01-6.67-.01-13.33,0-20,0-5.39,2.02-15.45-.29-20.34-3.87-8.19-22.17-14.5-29.89-18.9-9.79-5.58-20.87-10.83-22.9-23.12-4.08-24.78,31.1-34.73,46.85-45.4-15.6-9.04-48.84-20.03-47.35-42.56,1.36-20.64,32.58-30.53,47.58-39.69-14.57-8.43-43.14-17.92-47.06-36.29-4.43-20.77,19.7-30.69,34.35-38.7,7.06-3.86,16.21-6.73,18.69-15.25,2.08-7.15,1.14-21.17.15-28.6-1.33-9.95-9.97-12.12-17.7-17.37-8.74-5.94-16.88-12.78-24.26-20.34C-12.73,222.93-16.1,123.24,40.33,59.19c15.48-17.57,34.42-32.25,55.68-42.14C118.92,6.39,141.88,3.89,166.68,1.51c.02,32.82.04,65.64.06,98.46-36.29,4.12-65.76,26.68-67.62,65.32-1.86,38.81,30.09,68.55,67.62,70.2-.96,82.27-.06,164.61-.06,246.88,0,82.25-1.47,164.65.1,246.88Z"/>
      <path class="cls-1" d="M166.78,729.25c-1.58-82.23-.1-164.63-.1-246.88,0-82.28-.89-164.61.06-246.88,37.71,3.36,69.81-36.7,67.2-71.82-1.27-17.07-8.96-34.23-21.79-45.74-13.19-11.83-28.67-14.62-45.42-17.97-.02-32.82-.04-65.64-.06-98.46,4.76.05,9.52.1,14.27.15,19.16,3.2,37.54,6.54,55.34,14.72,17.93,8.23,32.57,20.25,47.87,32.44,32.29,39.86,54.23,82.4,48.86,135.52-4.37,43.26-25.83,84.48-60.14,111.45-7.29,5.73-21.24,11.2-26.45,18.78-6.05,8.81-2.05,29.06-2.04,39.43.02,27.62.02,55.24.03,82.85,0,55.24.01,110.47.12,165.71.04,23.15,7.76,59.53-10.49,77.6-9.57,9.47-21.18,17.43-31.43,26.2-10.2,8.74-21.34,22.81-35.85,22.89Z"/>
      <path class="cls-2" d="M284.16,48.83c-15.3-12.19-29.94-24.21-47.87-32.44-17.8-8.18-36.18-11.52-55.34-14.72,47.03-.02,94.05-.04,141.07-.07,44.87-.03,93.74-5.43,137.89,3.81,38.1,7.97,73.33,27.99,99.49,56.84,24.88,27.44,49.17,70.96,46.89,109.31-3.96-2.26-7.76-4.91-11.94-6.65-3.34-1.38-7.14-1.64-10.73-2.4-6.62.09-11.98,3.29-17.28,6.79-2.01,1.32-4.33,2.17-6.51,3.23-6.81-26.73-12.56-51.21-30.3-73.19-15.68-19.41-37.38-34.46-60.89-42.76-28-9.88-57.73-8.04-86.94-8.04-32.44,0-65.14-1.18-97.55.3Z"/>
      <path class="cls-5" d="M583.85,627.88c-18.96-.11-37.93-.3-56.89-.3-7.58,0-13.85-2.39-19.02-8.13-4.42-4.91-6.06-10.73-6.07-16.93-.11-53.93-.12-107.86-.03-161.79.03-14.92,10.22-25.07,25.12-25.2,17.14-.15,34.29-.03,51.43-.06,1.82,0,3.64-.19,5.46-.3,0,0,.05.26.05.26-1.75,35.11-.17,70.7-.17,105.86,0,35.29-1.77,71.12.22,106.35,0,0-.11.25-.11.25Z"/>
      <path class="cls-3" d="M583.96,627.63c-2-35.23-.22-71.06-.22-106.35,0-35.16-1.58-70.74.17-105.86.54-.03,1.09-.07,1.63-.1,5.81.07,11.63.1,17.44.21,15.25.29,30.5.62,45.75.93,9.23,2.16,16.91,11.01,16.92,20.24.08,56.74.19,113.49-.11,170.23-.05,10.01-6.82,16.06-15.84,19.56-5.11.33-10.21.88-15.32.94-16.27.19-32.55.19-48.82.26-.53-.02-1.07-.04-1.6-.07Z"/>
      <path class="cls-7" d="M648.73,416.47c-15.25-.31-30.5-.64-45.75-.93-5.81-.11-11.63-.14-17.44-.21,10.94-1.81,22.7-.81,33.76-.8,9.73,0,20.18-1.17,29.43,1.95Z"/>
      <path class="cls-7" d="M585.56,627.7c16.27-.07,32.55-.08,48.82-.26,5.11-.06,10.21-.61,15.32-.94-9.19,3.63-20.91,1.94-30.78,1.94-10.32,0-23.65,2.35-33.36-.74Z"/>
    </g>
  </g>
</svg>